<svg xmlns="http://www.w3.org/2000/svg">
<defs>
<!--!Font Awesome Free 6.7.1 by @fontawesome - https://fontawesome.com License - https://fontawesome.com/license/free Copyright 2024 Fonticons, Inc.-->
<symbol id="share" viewBox="0 0 512 512"><path fill="currentColor" d="M307 34.8c-11.5 5.1-19 16.6-19 29.2l0 64-112 0C78.8 128 0 206.8 0 304C0 417.3 81.5 467.9 100.2 478.1c2.5 1.4 5.3 1.9 8.1 1.9c10.9 0 19.7-8.9 19.7-19.7c0-7.5-4.3-14.4-9.8-19.5C108.8 431.9 96 414.4 96 384c0-53 43-96 96-96l96 0 0 64c0 12.6 7.4 24.1 19 29.2s25 3 34.4-5.4l160-144c6.7-6.1 10.6-14.7 10.6-23.8s-3.8-17.7-10.6-23.8l-160-144c-9.4-8.5-22.9-10.6-34.4-5.4z"/></symbol>
<symbol id="file-lines" viewBox="0 0 384 512"><path fill="currentColor" d="M64 464c-8.8 0-16-7.2-16-16L48 64c0-8.8 7.2-16 16-16l160 0 0 80c0 17.7 14.3 32 32 32l80 0 0 288c0 8.8-7.2 16-16 16L64 464zM64 0C28.7 0 0 28.7 0 64L0 448c0 35.3 28.7 64 64 64l256 0c35.3 0 64-28.7 64-64l0-293.5c0-17-6.7-33.3-18.7-45.3L274.7 18.7C262.7 6.7 246.5 0 229.5 0L64 0zm56 256c-13.3 0-24 10.7-24 24s10.7 24 24 24l144 0c13.3 0 24-10.7 24-24s-10.7-24-24-24l-144 0zm0 96c-13.3 0-24 10.7-24 24s10.7 24 24 24l144 0c13.3 0 24-10.7 24-24s-10.7-24-24-24l-144 0z"/></symbol>
<symbol id="trash-can" viewBox="0 0 448 512"><path fill="currentColor" d="M170.5 51.6L151.5 80l145 0-19-28.4c-1.5-2.2-4-3.6-6.7-3.6l-93.7 0c-2.7 0-5.2 1.3-6.7 3.6zm147-26.6L354.2 80 368 80l48 0 8 0c13.3 0 24 10.7 24 24s-10.7 24-24 24l-8 0 0 304c0 44.2-35.8 80-80 80l-224 0c-44.2 0-80-35.8-80-80l0-304-8 0c-13.3 0-24-10.7-24-24S10.7 80 24 80l8 0 48 0 13.8 0 36.7-55.1C140.9 9.4 158.4 0 177.1 0l93.7 0c18.7 0 36.2 9.4 46.6 24.9zM80 128l0 304c0 17.7 14.3 32 32 32l224 0c17.7 0 32-14.3 32-32l0-304L80 128zm80 64l0 208c0 8.8-7.2 16-16 16s-16-7.2-16-16l0-208c0-8.8 7.2-16 16-16s16 7.2 16 16zm80 0l0 208c0 8.8-7.2 16-16 16s-16-7.2-16-16l0-208c0-8.8 7.2-16 16-16s16 7.2 16 16zm80 0l0 208c0 8.8-7.2 16-16 16s-16-7.2-16-16l0-208c0-8.8 7.2-16 16-16s16 7.2 16 16z"/></symbol>
<symbol id="copy" viewBox="0 0 448 512"><path fill="currentColor" d="M208 0L332.1 0c12.7 0 24.9 5.1 33.9 14.1l67.9 67.9c9 9 14.1 21.2 14.1 33.9L448 336c0 26.5-21.5 48-48 48l-192 0c-26.5 0-48-21.5-48-48l0-288c0-26.5 21.5-48 48-48zM48 128l80 0 0 64-64 0 0 256 192 0 0-32 64 0 0 48c0 26.5-21.5 48-48 48L48 512c-26.5 0-48-21.5-48-48L0 176c0-26.5 21.5-48 48-48z"/></symbol>
<symbol id="arrows-rotate" viewBox="0 0 512 512"><path fill="currentColor" d="M105.1 202.6c7.7-21.8 20.2-42.3 37.8-59.8c62.5-62.5 163.8-62.5 226.3 0L386.3 160 352 160c-17.7 0-32 14.3-32 32s14.3 32 32 32l111.5 0c0 0 0 0 0 0l.4 0c17.7 0 32-14.3 32-32l0-112c0-17.7-14.3-32-32-32s-32 14.3-32 32l0 35.2L414.4 97.6c-87.5-87.5-229.3-87.5-316.8 0C73.2 122 55.6 150.7 44.8 181.4c-5.9 16.7 2.9 34.9 19.5 40.8s34.9-2.9 40.8-19.5zM39 289.3c-5 1.5-9.8 4.2-13.7 8.2c-4 4-6.7 8.8-8.1 14c-.3 1.2-.6 2.5-.8 3.8c-.3 1.7-.4 3.4-.4 5.1L16 432c0 17.7 14.3 32 32 32s32-14.3 32-32l0-35.1 17.6 17.5c0 0 0 0 0 0c87.5 87.4 229.3 87.4 316.7 0c24.4-24.4 42.1-53.1 52.9-83.8c5.9-16.7-2.9-34.9-19.5-40.8s-34.9 2.9-40.8 19.5c-7.7 21.8-20.2 42.3-37.8 59.8c-62.5 62.5-163.8 62.5-226.3 0l-.1-.1L125.6 352l34.4 0c17.7 0 32-14.3 32-32s-14.3-32-32-32L48.4 288c-1.6 0-3.2 .1-4.8 .3s-3.1 .5-4.6 1z"/></symbol>
<symbol id="gear" viewBox="0 0 512 512"><path fill="currentColor" d="M495.9 166.6c3.2 8.7 .5 18.4-6.4 24.6l-43.3 39.4c1.1 8.3 1.7 16.8 1.7 25.4s-.6 17.1-1.7 25.4l43.3 39.4c6.9 6.2 9.6 15.9 6.4 24.6c-4.4 11.9-9.7 23.3-15.8 34.3l-4.7 8.1c-6.6 11-14 21.4-22.1 31.2c-5.9 7.2-15.7 9.6-24.5 6.8l-55.7-17.7c-13.4 10.3-28.2 18.9-44 25.4l-12.5 57.1c-2 9.1-9 16.3-18.2 17.8c-13.8 2.3-28 3.5-42.5 3.5s-28.7-1.2-42.5-3.5c-9.2-1.5-16.2-8.7-18.2-17.8l-12.5-57.1c-15.8-6.5-30.6-15.1-44-25.4L83.1 425.9c-8.8 2.8-18.6 .3-24.5-6.8c-8.1-9.8-15.5-20.2-22.1-31.2l-4.7-8.1c-6.1-11-11.4-22.4-15.8-34.3c-3.2-8.7-.5-18.4 6.4-24.6l43.3-39.4C64.6 273.1 64 264.6 64 256s.6-17.1 1.7-25.4L22.4 191.2c-6.9-6.2-9.6-15.9-6.4-24.6c4.4-11.9 9.7-23.3 15.8-34.3l4.7-8.1c6.6-11 14-21.4 22.1-31.2c5.9-7.2 15.7-9.6 24.5-6.8l55.7 17.7c13.4-10.3 28.2-18.9 44-25.4l12.5-57.1c2-9.1 9-16.3 18.2-17.8C227.3 1.2 241.5 0 256 0s28.7 1.2 42.5 3.5c9.2 1.5 16.2 8.7 18.2 17.8l12.5 57.1c15.8 6.5 30.6 15.1 44 25.4l55.7-17.7c8.8-2.8 18.6-.3 24.5 6.8c8.1 9.8 15.5 20.2 22.1 31.2l4.7 8.1c6.1 11 11.4 22.4 15.8 34.3zM256 336a80 80 0 1 0 0-160 80 80 0 1 0 0 160z"/></symbol>
</defs>
</svg>
